<svg xmlns="http://www.w3.org/2000/svg" viewBox="0 0 65 65"><defs><style>.cls-1{fill:#34495e;}.cls-2{font-size:25.26px;font-family:DancingScript-Medium, Dancing Script;font-weight:500;}.cls-2,.cls-5{fill:#fff;}.cls-3{letter-spacing:-0.01em;}.cls-4,.cls-6{fill:none;stroke-linecap:round;stroke-miterlimit:10;stroke-width:0.25px;}.cls-4{stroke:#fff;}.cls-6{stroke:#afb6bb;}.cls-7{fill:#ebba16;}.cls-8{fill:#43b05c;}.cls-9{fill:#dd352e;}.cls-10{fill:#366db6;}.cls-11{fill:#38454f;}</style></defs><g id="faviIcon"><rect class="cls-1" x="-0.54" y="-1.02" width="67.35" height="67.35"/><text class="cls-2" transform="translate(20.83 60.72) scale(0.96 1)"><tspan class="cls-3">A</tspan><tspan x="15.05" y="0">G</tspan></text><path class="cls-4" d="M36,19.74V11.43a2.94,2.94,0,0,1,2.87-3h0a2.93,2.93,0,0,1,2.86,3v2.32a2.61,2.61,0,0,0,2.55,2.66h0a2.61,2.61,0,0,0,2.55-2.66V3.12"/><path class="cls-5" d="M46.37,38.31a24.41,24.41,0,0,1-5.93-.89,18,18,0,0,0-9.32,0,22.71,22.71,0,0,1-5.93.89c-4.36-.06-7.63-4.62-7.63-9.29h0a9.12,9.12,0,0,1,8.9-9.28H45.1A9,9,0,0,1,53.86,29h0C53.86,33.69,50.73,38.23,46.37,38.31Z"/><line class="cls-6" x1="34.76" y1="22.4" x2="37.71" y2="22.4"/><ellipse class="cls-7" cx="44.95" cy="33.69" rx="1.91" ry="1.99"/><ellipse class="cls-8" cx="40.49" cy="29.04" rx="1.91" ry="1.99"/><ellipse class="cls-9" cx="49.41" cy="29.04" rx="1.91" ry="1.99"/><ellipse class="cls-10" cx="44.95" cy="24.39" rx="1.91" ry="1.99"/><polygon class="cls-11" points="31.57 27.05 29.02 27.05 29.02 24.39 25.2 24.39 25.2 27.05 22.66 27.05 22.66 31.04 25.2 31.04 25.2 33.69 29.02 33.69 29.02 31.04 31.57 31.04 31.57 27.05"/></g></svg>