<svg id="mobileIcon" xmlns="http://www.w3.org/2000/svg" viewBox="0 0 128 128"><defs><style>.cls-1{fill:#34495e;}.cls-2{font-size:29px;font-family:DancingScript-Medium, Dancing Script;font-weight:500;}.cls-2,.cls-5{fill:#fff;}.cls-3{font-size:6px;}.cls-4,.cls-6{fill:none;stroke-linecap:round;stroke-miterlimit:10;stroke-width:2px;}.cls-4{stroke:#fff;}.cls-6{stroke:#afb6bb;}.cls-7{fill:#ebba16;}.cls-8{fill:#43b05c;}.cls-9{fill:#dd352e;}.cls-10{fill:#366db6;}.cls-11{fill:#38454f;}</style></defs><rect class="cls-1" width="128" height="128"/><text class="cls-2" transform="translate(39.4 90.36)">A<tspan class="cls-3" x="17.54" y="0">nec</tspan><tspan x="24.33" y="0">G</tspan><tspan class="cls-3" x="40.68" y="0">ame.com</tspan></text><path class="cls-4" d="M68.05,39.48V27a4.51,4.51,0,0,1,4.5-4.5h0a4.51,4.51,0,0,1,4.5,4.5v3.5a4,4,0,0,0,4,4h0a4,4,0,0,0,4-4v-16"/><path class="cls-5" d="M84.29,67.42A39.92,39.92,0,0,1,75,66.09a29.27,29.27,0,0,0-14.64,0A36.67,36.67,0,0,1,51,67.42c-6.83-.09-12-7-12-14h0a14,14,0,0,1,14-14H82.29a13.82,13.82,0,0,1,13.76,14h0C96.05,60.47,91.12,67.3,84.29,67.42Z"/><line class="cls-6" x1="66.05" y1="43.48" x2="70.68" y2="43.48"/><circle class="cls-7" cx="82.05" cy="60.48" r="3"/><circle class="cls-8" cx="75.05" cy="53.48" r="3"/><circle class="cls-9" cx="89.05" cy="53.48" r="3"/><circle class="cls-10" cx="82.05" cy="46.48" r="3"/><polygon class="cls-11" points="61.05 50.48 57.05 50.48 57.05 46.48 51.05 46.48 51.05 50.48 47.05 50.48 47.05 56.48 51.05 56.48 51.05 60.48 57.05 60.48 57.05 56.48 61.05 56.48 61.05 50.48"/></svg>